<svg xmlns="http://www.w3.org/2000/svg" width="107.78" height="107.77">
    <path fill="#e2361f" d="M107.78 63.17c0 28.03-37.44 43.32-65.36 43.32S.62 87.91.62 59.89 16.58 13.41 44.5 13.41s63.28 21.73 63.28 49.75"/>
    <path fill="#a4120d" d="M55.62 107.77C29.02 107.77.75 91.18.75 60.45.75 31.25 19.97 0 48.59 0c29.1 0 48.66 19.44 48.66 48.39 0 15.36-3.46 29.63-9.74 40.2-7.46 12.55-18.49 19.18-31.9 19.18M48.6 3.64C22.15 3.64 4.4 33 4.4 60.45c0 28.37 26.4 43.68 51.23 43.68 26.25 0 38-28 38-55.74 0-26.77-18.1-44.75-45.03-44.75"/>
    <path fill="#e2361f" d="M88.46 60.42c0 23.36-8.6 29.1-31.87 29.1S0 81.93 0 58.59 25.73 6 49 6s39.46 31.06 39.46 54.41"/>
    <path fill="#ffd616" d="M55.96 92.5c-24.14 0-40.2-5.03-40.2-29.58 0-23.99 15.08-57.46 39.67-57.46A51.63 51.63 0 0 1 88 17.1c9.48 7.9 14.7 18.57 14.7 30.06 0 23.73-22.29 45.34-46.75 45.34m-.53-83.4c-22 0-36.04 31.87-36.04 53.82 0 21.7 13.41 25.94 36.58 25.94 22.56 0 43.11-19.88 43.11-41.7C99.08 24.4 76.51 9.1 55.43 9.1"/>
    <path fill="#f99300" d="M53.82 101.72c-11.65 0-24.51-4.32-34.4-11.56-11.21-8.21-17.38-19-17.38-30.37 0-24.68 32.83-38.33 55.52-38.33 23.35 0 33.31 10.27 33.31 34.34 0 22.12-11.59 45.92-37.05 45.92Zm3.75-78.16c-21.84 0-53.43 12.9-53.43 36.23 0 10.69 5.87 20.87 16.52 28.67 9.54 7 21.94 11.17 33.16 11.17 24.02 0 34.96-22.72 34.96-43.83 0-23.2-8.75-32.24-31.21-32.24Z"/>
    <path fill="#f99300" d="M86.34 49.82c0 14.22-21.34 35.96-35.5 35.96S23.55 61.6 23.55 47.38s9.97-19.75 24.14-19.75 38.66 7.97 38.66 22.2"/>
    <path fill="#f99300" d="M53.02 88.13c-15.67 0-24.12-15.07-24.12-29.25 0-22.41 11.2-27.12 20.6-27.12 14.43 0 28.07 14.88 28.07 30.63 0 15.4-9.87 25.74-24.55 25.74M49.5 35.4c-11.26 0-16.96 7.9-16.96 23.48 0 16.82 10.3 25.62 20.48 25.62 12.7 0 20.91-8.68 20.91-22.11 0-13.87-11.87-26.99-24.43-26.99"/>
    <path fill="#ffd616" d="M69.7 49.64c0 12.24-7.93 22.46-20.12 22.46S39.33 59.84 39.33 47.6s10.92-15.25 23.1-15.25 7.26 5.05 7.26 17.29"/>
    <path fill="#ffd616" d="M54.32 84.91c-13.6 0-26.9-16.68-26.9-29.13 0-13 21.1-28.65 34.35-28.65 15.45 0 17.43 11.42 17.43 21.36 0 12.3-11.26 36.43-24.88 36.43m7.45-54.15c-11.4 0-30.7 14.21-30.7 25.01 0 11.68 12.6 25.5 23.25 25.5 10.54 0 21.25-21.04 21.25-32.8 0-12.75-3.87-17.71-13.8-17.71"/>
    <path fill="#f99300" d="M50.86 81.18c-18.83 0-25.18-6.2-25.18-24.57 0-19.92 6.58-43.17 25.14-43.17 8.77 0 18.4 5.49 26.41 15.06 7.52 8.99 12.01 19.66 12.01 28.56 0 11-6.66 24.12-38.38 24.12Zm-.04-65.64c-17 0-23.04 22.13-23.04 41.07 0 17.22 5.4 22.47 23.08 22.47 23.74 0 36.28-7.62 36.28-22.02 0-8.42-4.3-18.6-11.52-27.21-7.61-9.1-16.65-14.3-24.8-14.3Z"/>
    <path fill="#ffbf00" d="M49.5 88.7c-22.33 0-35.66-12.09-35.66-32.34 0-20.63 24.16-35.01 45.84-35.01 10.04 0 19.4 4.88 26.37 13.75A47.7 47.7 0 0 1 96 64.02C96 88.7 63.42 88.7 49.5 88.7Zm10.18-65.25c-20.69 0-43.74 13.52-43.74 32.92 0 18.93 12.55 30.23 33.56 30.23 13.29 0 44.4 0 44.4-22.58a45.55 45.55 0 0 0-9.5-27.62c-6.55-8.35-15.34-12.95-24.72-12.95Z"/>
</svg>
