<svg xmlns="http://www.w3.org/2000/svg" width="134.08" height="192.17" viewBox="0 0 35.48 50.85">
    <path fill="#34a853" d="M9.77 37.68a51.38 51.38 0 0 1 4.01 5.91 29.98 29.98 0 0 1 2.2 5.59c.45 1.29.87 1.67 1.76 1.67.97 0 1.4-.65 1.75-1.67.7-2.2 1.26-3.88 2.13-5.47a62.42 62.42 0 0 1 5.94-8.42c.57-.75 4.23-5.07 5.88-8.48 0 0 2.03-3.75 2.03-8.98 0-4.9-2-8.29-2-8.29l-5.76 1.54-3.5 9.21-.86 1.27-.17.23-.23.29-.4.46-.58.58-3.12 2.53-7.78 4.5z"/>
    <path fill="#fbbc04" d="M1.74 26.18c1.9 4.34 5.56 8.15 8.04 11.5l13.17-15.6s-1.86 2.43-5.22 2.43c-3.75 0-6.78-3-6.78-6.77 0-2.58 1.56-4.36 1.56-4.36l-8.94 2.4z"/>
    <path fill="#4285f4" d="M23.1.8a17.63 17.63 0 0 1 10.37 8.74L22.95 22.08s1.56-1.81 1.56-4.38a6.81 6.81 0 0 0-6.77-6.75c-3.32 0-5.23 2.42-5.23 2.42v-7.9z"/>
    <path fill="#1a73e8" d="M4.15 6.34A17.57 17.57 0 0 1 17.69 0c3.08 0 5.4.8 5.4.8L12.5 13.39H5Z"/>
    <path fill="#ea4335" d="M1.74 26.18S-.01 22.76-.01 17.8C-.01 13.1 1.81 9 4.15 6.34l8.36 7.04z"/>
</svg>
