<svg xmlns="http://www.w3.org/2000/svg" xml:space="preserve" width="266.88" height="266.5" viewBox="0 0 70.61 70.51">
<!-- (badly) traced from https://mannschaft.com/bimber/wp-content/uploads/2020/03/cropped-Website-Mannschaft-Logo-270x270.jpg -->
  <path d="M29.18 69.98C16.37 67.72 5.45 58.24 1.6 46.03A30.37 30.37 0 0 1 0 35.19c0-4.52.34-6.8 1.61-10.85 3.3-10.46 12.26-19.41 22.74-22.7C28.8.23 30.4 0 35.3 0c4.9 0 6.48.24 10.98 1.65 11.56 3.63 20.76 13.8 23.52 26.03 2.6 11.46-1.07 23.95-9.5 32.39a35.22 35.22 0 0 1-31.11 9.9zm10.26-3.46a31.84 31.84 0 0 0 25.85-21.4 26.43 26.43 0 0 0 1.55-9.93c0-4.15-.33-6.26-1.55-9.92a32.01 32.01 0 0 0-24.05-21.2c-2.36-.47-9.74-.48-11.9-.01a31.97 31.97 0 0 0-16.88 9.27A29.75 29.75 0 0 0 5.42 24.6a27.83 27.83 0 0 0-1.8 9.27c-.8 17.7 13.5 32.72 31.32 32.91 1.33.02 3.36-.1 4.5-.26zM18.68 50.26c-.66-.47-.8-1.62-.26-2.3.22-.27.93-.47 2.05-.56l1.79-.16c.03 0 .06-5.43.06-12.05V23.15H21c-2.16 0-3.18-1.42-2.04-2.84.19-.24 1.44-.33 4.58-.33 4.24 0 4.32 0 4.5.6.23.72 6.38 14.88 6.87 15.8.35.66.35.66 1-.8.75-1.61 5.33-12.05 6.26-14.21l.6-1.4h4.33c4.26 0 4.33.02 4.73.63.31.47.35.8.16 1.3-.35.9-1.05 1.25-2.52 1.25h-1.21l.07 12.1.06 12.1 1.2.03c1.84.04 2.04.08 2.49.53.57.57.52 1.6-.11 2.23-.5.5-.89.53-6.18.53-5.14 0-5.69-.05-6.09-.49-.54-.6-.57-1.98-.04-2.42.23-.19 1.27-.36 2.39-.4a9.09 9.09 0 0 0 2.14-.2c.08-.08.18-5.01.23-10.96.04-5.94.16-11.1.27-11.46.53-1.75-.53.39-3.03 6.08-1.5 3.42-3.18 7.23-3.74 8.47l-1 2.25-1.7.08-1.69.07-3.66-8.6a164.85 164.85 0 0 0-3.82-8.62c-.08 0-.11 5.12-.07 11.38.05 8.78.14 11.38.4 11.38 2.63.05 4.25.25 4.54.56.66.7.7 1.44.13 2.17l-.55.7h-5.61c-4.65 0-5.72-.06-6.2-.4z"/>
</svg>
