<svg xmlns="http://www.w3.org/2000/svg" width="57.06" height="63.35">
  <path fill="#fff" d="M57.04 0H0v39.7c.06 7.52 4.58 15.74 14.77 20.63a32.81 32.81 0 0 0 30.34-1.5c7.38-4.32 11.76-11.3 11.95-18.96L57.04 0z"/>
  <path fill="#231f20" d="M42.26 58.79V46.92h-.67a7.22 7.22 0 0 0-6.52 4.15 7.21 7.21 0 0 0-13.1 0 7.21 7.21 0 0 0-6.52-4.15h-.67v11.87C6.04 54.39 1.4 46.64 1.33 39.7v-3.44l13.9 9.3h26.53l13.97-9.3v3.57c-.36 9.29-7.15 15.98-13.47 18.96zm-1.33.64c-1.28.6-3.5 1.24-5.2 1.67v-7.03a5.86 5.86 0 0 1 5.2-5.75v11.11zm-6.54 1.96c-3.91.77-7.68.63-11.74 0V54.07a5.88 5.88 0 0 1 11.74-.02v7.34zm-13.07-.29c-1.28-.36-3.35-.86-5.21-1.7V48.31a5.86 5.86 0 0 1 5.2 5.78v7zM6.57 18.89l3.6-5.54 3.62 5.55a13.33 13.33 0 0 0-7.22-.01zm8.2 1.76v23l-9.2-6.15V20.64a12.19 12.19 0 0 1 9.2.01zm18.2 3.2v-7.07l3.19-2.8v11.15s-1.18-.69-3.2-1.28zm-8.9-7.07v7.08c-1.38.43-3.17 1.27-3.17 1.27v-11.1l3.16 2.75zm7.56-.06v6.84a16.72 16.72 0 0 0-6.24 0v-6.83l3.13-3.6 3.11 3.6zm-3.1-5.63-3.87 4.45c-.1-.1-2-1.71-2.72-2.34l1.23.02s4.43-7.21 5.35-8.62c.91 1.41 5.3 8.62 5.3 8.62H35l-2.64 2.32-3.83-4.45zm-3.55 28.55 3.54-2.82 3.58 2.82h-7.12zM32.69 41v3.23h-8.3V41h8.3zm-4.17-5.77-5.48 4.44.01 4.56H20.9V26.57c4.5-2.38 10.62-2.67 15.26 0v17.65h-2.18v-4.58l-5.46-4.42zm14.7-16.31 3.61-5.56 3.6 5.53a13.33 13.33 0 0 0-7.22.03zm8.21 1.72v16.89l-9.2 6.12V20.66c1.07-.45 4.88-1.8 9.2-.03zM1.33 1.33H55.7l.02 33.33-2.97 1.97V20.01l-5.93-9.1-5.92 9.1v24.21h-3.42V11.9H34.5c-.38-.58-5.99-9.7-5.99-9.7l-6.04 9.71h-2.91v32.32H16.1v-24.2l-5.93-9.11L4.24 20v16.6l-2.91-1.95V1.33zM57.04 0H0v39.7c.06 7.52 4.58 15.74 14.77 20.63a32.81 32.81 0 0 0 30.34-1.5c7.38-4.32 11.76-11.3 11.95-18.96L57.04 0z"/>
  <path fill="#bdbcbc" d="M1.33 1.33H55.7l.02 33.33-2.97 1.97V20.01l-5.93-9.1-5.92 9.1v24.21h-3.42V11.9H34.5c-.38-.58-5.99-9.7-5.99-9.7l-6.04 9.71h-2.91v32.32H16.1v-24.2l-5.93-9.11L4.24 20v16.6l-2.91-1.95V1.33zM22.65 54.07a5.88 5.88 0 0 1 11.74-.02v7.34c-3.91.77-7.68.63-11.74 0V54.07z"/>
</svg>
